<mxfile modified="2023-12-11T15:15:22.585Z" host="app.diagrams.net" agent="Mozilla/5.0 (Macintosh; Intel Mac OS X 10_15_7) AppleWebKit/537.36 (KHTML, like Gecko) Chrome/108.0.0.0 Safari/537.36" etag="ftbLkt4p_cSA7kUg0wUw" version="22.1.7" type="github">
  <diagram id="Ht1M8jgEwFfnCIfOTk4-" name="Page-1">
    <mxGraphModel dx="2802" dy="2699" grid="1" gridSize="10" guides="1" tooltips="1" connect="1" arrows="1" fold="1" page="1" pageScale="1" pageWidth="1169" pageHeight="827" math="0" shadow="0">
      <root>
        <mxCell id="0" />
        <mxCell id="1" parent="0" />
        <mxCell id="UEzPUAAOIrF-is8g5C7q-164" style="edgeStyle=orthogonalEdgeStyle;rounded=0;orthogonalLoop=1;jettySize=auto;html=1;startArrow=none;startFill=0;endArrow=open;endFill=0;strokeColor=#808080;strokeWidth=2;" parent="1" source="UEzPUAAOIrF-is8g5C7q-146" target="UEzPUAAOIrF-is8g5C7q-148" edge="1">
          <mxGeometry relative="1" as="geometry">
            <Array as="points">
              <mxPoint x="237" y="-616" />
              <mxPoint x="237" y="-525" />
            </Array>
          </mxGeometry>
        </mxCell>
        <mxCell id="UEzPUAAOIrF-is8g5C7q-165" style="edgeStyle=orthogonalEdgeStyle;rounded=0;orthogonalLoop=1;jettySize=auto;html=1;startArrow=none;startFill=0;endArrow=open;endFill=0;strokeColor=#808080;strokeWidth=2;" parent="1" source="UEzPUAAOIrF-is8g5C7q-147" target="UEzPUAAOIrF-is8g5C7q-148" edge="1">
          <mxGeometry relative="1" as="geometry">
            <Array as="points">
              <mxPoint x="237" y="-456" />
              <mxPoint x="237" y="-525" />
            </Array>
          </mxGeometry>
        </mxCell>
        <mxCell id="UEzPUAAOIrF-is8g5C7q-162" style="edgeStyle=orthogonalEdgeStyle;rounded=0;orthogonalLoop=1;jettySize=auto;html=1;startArrow=none;startFill=0;endArrow=open;endFill=0;strokeColor=#808080;strokeWidth=2;" parent="1" source="UEzPUAAOIrF-is8g5C7q-148" target="UEzPUAAOIrF-is8g5C7q-144" edge="1">
          <mxGeometry relative="1" as="geometry">
            <Array as="points">
              <mxPoint x="325" y="-674" />
              <mxPoint x="295" y="-674" />
            </Array>
          </mxGeometry>
        </mxCell>
        <mxCell id="UEzPUAAOIrF-is8g5C7q-163" style="edgeStyle=orthogonalEdgeStyle;rounded=0;orthogonalLoop=1;jettySize=auto;html=1;startArrow=none;startFill=0;endArrow=open;endFill=0;strokeColor=#808080;strokeWidth=2;" parent="1" source="UEzPUAAOIrF-is8g5C7q-148" target="UEzPUAAOIrF-is8g5C7q-145" edge="1">
          <mxGeometry relative="1" as="geometry">
            <Array as="points">
              <mxPoint x="325" y="-674" />
              <mxPoint x="455" y="-674" />
            </Array>
          </mxGeometry>
        </mxCell>
        <mxCell id="UEzPUAAOIrF-is8g5C7q-166" style="edgeStyle=orthogonalEdgeStyle;rounded=0;orthogonalLoop=1;jettySize=auto;html=1;startArrow=none;startFill=0;endArrow=open;endFill=0;strokeColor=#808080;strokeWidth=2;" parent="1" source="UEzPUAAOIrF-is8g5C7q-148" edge="1">
          <mxGeometry relative="1" as="geometry">
            <mxPoint x="324.99999999999955" y="-383.98184019370456" as="targetPoint" />
          </mxGeometry>
        </mxCell>
        <mxCell id="UEzPUAAOIrF-is8g5C7q-167" style="edgeStyle=orthogonalEdgeStyle;rounded=0;orthogonalLoop=1;jettySize=auto;html=1;startArrow=none;startFill=0;endArrow=open;endFill=0;strokeColor=#808080;strokeWidth=2;" parent="1" source="UEzPUAAOIrF-is8g5C7q-148" target="UEzPUAAOIrF-is8g5C7q-154" edge="1">
          <mxGeometry relative="1" as="geometry">
            <mxPoint x="786" y="-525" as="targetPoint" />
            <Array as="points">
              <mxPoint x="686" y="-525" />
              <mxPoint x="686" y="-525" />
            </Array>
          </mxGeometry>
        </mxCell>
        <mxCell id="UEzPUAAOIrF-is8g5C7q-168" style="edgeStyle=orthogonalEdgeStyle;rounded=0;orthogonalLoop=1;jettySize=auto;html=1;startArrow=none;startFill=0;endArrow=open;endFill=0;strokeColor=#808080;strokeWidth=2;" parent="1" source="UEzPUAAOIrF-is8g5C7q-148" target="UEzPUAAOIrF-is8g5C7q-149" edge="1">
          <mxGeometry relative="1" as="geometry">
            <Array as="points">
              <mxPoint x="346" y="-643" />
            </Array>
          </mxGeometry>
        </mxCell>
        <mxCell id="UEzPUAAOIrF-is8g5C7q-144" value="Amazon CloudWatch" style="outlineConnect=0;fontColor=#232F3E;gradientColor=#F34482;gradientDirection=north;fillColor=#BC1356;strokeColor=#ffffff;dashed=0;verticalLabelPosition=bottom;verticalAlign=top;align=center;html=1;fontSize=12;fontStyle=0;aspect=fixed;shape=mxgraph.aws4.resourceIcon;resIcon=mxgraph.aws4.cloudwatch;labelBackgroundColor=#ffffff;spacingTop=5;" parent="1" vertex="1">
          <mxGeometry x="256" y="-794" width="78" height="78" as="geometry" />
        </mxCell>
        <mxCell id="UEzPUAAOIrF-is8g5C7q-145" value="Amazon SNS" style="outlineConnect=0;fontColor=#232F3E;gradientColor=#F34482;gradientDirection=north;fillColor=#BC1356;strokeColor=#ffffff;dashed=0;verticalLabelPosition=bottom;verticalAlign=top;align=center;html=1;fontSize=12;fontStyle=0;aspect=fixed;shape=mxgraph.aws4.resourceIcon;resIcon=mxgraph.aws4.sns;labelBackgroundColor=#ffffff;spacingTop=5;" parent="1" vertex="1">
          <mxGeometry x="416" y="-794" width="78" height="78" as="geometry" />
        </mxCell>
        <mxCell id="UEzPUAAOIrF-is8g5C7q-146" value="Amazon&lt;br&gt;CloudWatch Event&lt;br&gt;" style="outlineConnect=0;fontColor=#232F3E;gradientColor=none;fillColor=#BC1356;strokeColor=none;dashed=0;verticalLabelPosition=bottom;verticalAlign=top;align=center;html=1;fontSize=12;fontStyle=0;aspect=fixed;pointerEvents=1;shape=mxgraph.aws4.event_time_based;labelBackgroundColor=#ffffff;" parent="1" vertex="1">
          <mxGeometry x="46" y="-654" width="78" height="78" as="geometry" />
        </mxCell>
        <mxCell id="UEzPUAAOIrF-is8g5C7q-147" value="Amazon&lt;br&gt;CloudWatch Event&lt;br&gt;" style="outlineConnect=0;fontColor=#232F3E;gradientColor=none;fillColor=#BC1356;strokeColor=none;dashed=0;verticalLabelPosition=bottom;verticalAlign=top;align=center;html=1;fontSize=12;fontStyle=0;aspect=fixed;pointerEvents=1;shape=mxgraph.aws4.event_event_based;labelBackgroundColor=#ffffff;" parent="1" vertex="1">
          <mxGeometry x="46" y="-494" width="78" height="78" as="geometry" />
        </mxCell>
        <mxCell id="uI71vVi89oAQMDwX3qzH-40" style="edgeStyle=orthogonalEdgeStyle;rounded=0;orthogonalLoop=1;jettySize=auto;html=1;" edge="1" parent="1" source="UEzPUAAOIrF-is8g5C7q-148" target="UEzPUAAOIrF-is8g5C7q-153">
          <mxGeometry relative="1" as="geometry">
            <Array as="points">
              <mxPoint x="350" y="-390" />
            </Array>
          </mxGeometry>
        </mxCell>
        <mxCell id="UEzPUAAOIrF-is8g5C7q-148" value="Lambda" style="outlineConnect=0;fontColor=#232F3E;gradientColor=#F78E04;gradientDirection=north;fillColor=#D05C17;strokeColor=#ffffff;dashed=0;verticalLabelPosition=bottom;verticalAlign=top;align=center;html=1;fontSize=12;fontStyle=0;aspect=fixed;shape=mxgraph.aws4.resourceIcon;resIcon=mxgraph.aws4.lambda;labelBackgroundColor=#ffffff;spacingTop=8;" parent="1" vertex="1">
          <mxGeometry x="286" y="-564" width="78" height="78" as="geometry" />
        </mxCell>
        <mxCell id="UEzPUAAOIrF-is8g5C7q-149" value="Amazon DynamoDB" style="outlineConnect=0;fontColor=#232F3E;gradientColor=#4D72F3;gradientDirection=north;fillColor=#3334B9;strokeColor=#ffffff;dashed=0;verticalLabelPosition=bottom;verticalAlign=top;align=center;html=1;fontSize=12;fontStyle=0;aspect=fixed;shape=mxgraph.aws4.resourceIcon;resIcon=mxgraph.aws4.dynamodb;labelBackgroundColor=#ffffff;" parent="1" vertex="1">
          <mxGeometry x="616" y="-682.5" width="78" height="78" as="geometry" />
        </mxCell>
        <mxCell id="uI71vVi89oAQMDwX3qzH-39" style="edgeStyle=orthogonalEdgeStyle;rounded=0;orthogonalLoop=1;jettySize=auto;html=1;" edge="1" parent="1" source="UEzPUAAOIrF-is8g5C7q-153" target="UEzPUAAOIrF-is8g5C7q-161">
          <mxGeometry relative="1" as="geometry" />
        </mxCell>
        <mxCell id="UEzPUAAOIrF-is8g5C7q-153" value="Amazon SNS&lt;br&gt;Topic&lt;br&gt;" style="outlineConnect=0;fontColor=#232F3E;gradientColor=none;fillColor=#BC1356;strokeColor=none;dashed=0;verticalLabelPosition=bottom;verticalAlign=top;align=center;html=1;fontSize=12;fontStyle=0;aspect=fixed;pointerEvents=1;shape=mxgraph.aws4.topic;labelBackgroundColor=#ffffff;" parent="1" vertex="1">
          <mxGeometry x="607" y="-428" width="78" height="67" as="geometry" />
        </mxCell>
        <mxCell id="UEzPUAAOIrF-is8g5C7q-154" value="AWS Cloud" style="points=[[0,0],[0.25,0],[0.5,0],[0.75,0],[1,0],[1,0.25],[1,0.5],[1,0.75],[1,1],[0.75,1],[0.5,1],[0.25,1],[0,1],[0,0.75],[0,0.5],[0,0.25]];outlineConnect=0;gradientColor=none;html=1;whiteSpace=wrap;fontSize=12;fontStyle=0;shape=mxgraph.aws4.group;grIcon=mxgraph.aws4.group_aws_cloud_alt;strokeColor=#232F3E;fillColor=none;verticalAlign=top;align=left;spacingLeft=30;fontColor=#232F3E;dashed=0;labelBackgroundColor=#ffffff;container=1;pointerEvents=0;collapsible=0;recursiveResize=0;" parent="1" vertex="1">
          <mxGeometry x="-110" y="-960" width="1430" height="1010" as="geometry" />
        </mxCell>
        <mxCell id="uI71vVi89oAQMDwX3qzH-5" value="" style="sketch=0;outlineConnect=0;fontColor=#232F3E;gradientColor=none;fillColor=#DD344C;strokeColor=none;dashed=0;verticalLabelPosition=bottom;verticalAlign=top;align=center;html=1;fontSize=12;fontStyle=0;aspect=fixed;pointerEvents=1;shape=mxgraph.aws4.role;" vertex="1" parent="UEzPUAAOIrF-is8g5C7q-154">
          <mxGeometry x="20" y="70" width="80" height="45.13" as="geometry" />
        </mxCell>
        <mxCell id="uI71vVi89oAQMDwX3qzH-6" value="Roles and Permission" style="text;html=1;align=center;verticalAlign=middle;resizable=0;points=[];autosize=1;strokeColor=none;fillColor=none;" vertex="1" parent="UEzPUAAOIrF-is8g5C7q-154">
          <mxGeometry x="-1" y="114" width="140" height="30" as="geometry" />
        </mxCell>
        <mxCell id="UEzPUAAOIrF-is8g5C7q-158" value="Amazon S3&lt;br&gt;Bucket&lt;br&gt;" style="outlineConnect=0;fontColor=#232F3E;gradientColor=none;fillColor=#277116;strokeColor=none;dashed=0;verticalLabelPosition=bottom;verticalAlign=top;align=center;html=1;fontSize=12;fontStyle=0;aspect=fixed;pointerEvents=1;shape=mxgraph.aws4.bucket_with_objects;labelBackgroundColor=#ffffff;" parent="UEzPUAAOIrF-is8g5C7q-154" vertex="1">
          <mxGeometry x="400" y="580" width="86.54" height="90" as="geometry" />
        </mxCell>
        <mxCell id="UEzPUAAOIrF-is8g5C7q-155" value="" style="rounded=0;whiteSpace=wrap;html=1;dashed=1;labelBackgroundColor=#ffffff;fillColor=none;gradientColor=none;container=1;pointerEvents=0;collapsible=0;recursiveResize=0;" parent="UEzPUAAOIrF-is8g5C7q-154" vertex="1">
          <mxGeometry x="190" y="619" width="185" height="310" as="geometry" />
        </mxCell>
        <mxCell id="UEzPUAAOIrF-is8g5C7q-156" value="Template" style="outlineConnect=0;fontColor=#232F3E;gradientColor=none;fillColor=#BC1356;strokeColor=none;dashed=0;verticalLabelPosition=bottom;verticalAlign=top;align=center;fontSize=12;fontStyle=0;aspect=fixed;pointerEvents=1;shape=mxgraph.aws4.template;labelBackgroundColor=#ffffff;html=1;" parent="UEzPUAAOIrF-is8g5C7q-155" vertex="1">
          <mxGeometry x="50" y="81" width="65" height="78" as="geometry" />
        </mxCell>
        <mxCell id="uI71vVi89oAQMDwX3qzH-13" value="Template" style="outlineConnect=0;fontColor=#232F3E;gradientColor=none;fillColor=#BC1356;strokeColor=none;dashed=0;verticalLabelPosition=bottom;verticalAlign=top;align=center;html=1;fontSize=12;fontStyle=0;aspect=fixed;pointerEvents=1;shape=mxgraph.aws4.template;labelBackgroundColor=#ffffff;" vertex="1" parent="UEzPUAAOIrF-is8g5C7q-155">
          <mxGeometry x="50" y="201" width="65" height="78" as="geometry" />
        </mxCell>
        <mxCell id="uI71vVi89oAQMDwX3qzH-8" value="" style="endArrow=classic;html=1;rounded=0;" edge="1" parent="UEzPUAAOIrF-is8g5C7q-154" source="UEzPUAAOIrF-is8g5C7q-158" target="uI71vVi89oAQMDwX3qzH-13">
          <mxGeometry width="50" height="50" relative="1" as="geometry">
            <mxPoint x="760" y="554" as="sourcePoint" />
            <mxPoint x="304.99999999999955" y="793.2238805970151" as="targetPoint" />
            <Array as="points">
              <mxPoint x="443" y="793" />
              <mxPoint x="443" y="859" />
              <mxPoint x="370" y="859" />
            </Array>
          </mxGeometry>
        </mxCell>
        <mxCell id="uI71vVi89oAQMDwX3qzH-16" value="Amazon CloudWatch" style="outlineConnect=0;fontColor=#232F3E;gradientColor=#F34482;gradientDirection=north;fillColor=#BC1356;strokeColor=#ffffff;dashed=0;verticalLabelPosition=bottom;verticalAlign=top;align=center;html=1;fontSize=12;fontStyle=0;aspect=fixed;shape=mxgraph.aws4.resourceIcon;resIcon=mxgraph.aws4.cloudwatch;labelBackgroundColor=#ffffff;spacingTop=5;" vertex="1" parent="UEzPUAAOIrF-is8g5C7q-154">
          <mxGeometry x="1267" y="320" width="78" height="78" as="geometry" />
        </mxCell>
        <mxCell id="UEzPUAAOIrF-is8g5C7q-160" value="CloudWatch&lt;br&gt;Event&lt;br&gt;" style="outlineConnect=0;fontColor=#232F3E;gradientColor=none;fillColor=#BC1356;strokeColor=none;dashed=0;verticalLabelPosition=bottom;verticalAlign=top;align=center;html=1;fontSize=12;fontStyle=0;aspect=fixed;pointerEvents=1;shape=mxgraph.aws4.event_event_based;labelBackgroundColor=#ffffff;" parent="UEzPUAAOIrF-is8g5C7q-154" vertex="1">
          <mxGeometry x="1090" y="250" width="78" height="78" as="geometry" />
        </mxCell>
        <mxCell id="uI71vVi89oAQMDwX3qzH-18" value="" style="fillColor=none;strokeColor=#5A6C86;dashed=1;verticalAlign=top;fontStyle=0;fontColor=#5A6C86;pointerEvents=0;fontFamily=Helvetica;fontSize=12;html=1;" vertex="1" parent="UEzPUAAOIrF-is8g5C7q-154">
          <mxGeometry x="1230" y="270" width="180" height="470" as="geometry" />
        </mxCell>
        <mxCell id="uI71vVi89oAQMDwX3qzH-25" value="Monitoring" style="text;html=1;align=center;verticalAlign=middle;resizable=0;points=[];autosize=1;strokeColor=none;fillColor=none;" vertex="1" parent="UEzPUAAOIrF-is8g5C7q-154">
          <mxGeometry x="1276" y="280" width="80" height="30" as="geometry" />
        </mxCell>
        <mxCell id="uI71vVi89oAQMDwX3qzH-26" value="" style="outlineConnect=0;dashed=0;verticalLabelPosition=bottom;verticalAlign=top;align=center;html=1;shape=mxgraph.aws3.sns;fillColor=#D9A741;gradientColor=none;strokeColor=#6C8EBF;fontSize=13;" vertex="1" parent="UEzPUAAOIrF-is8g5C7q-154">
          <mxGeometry x="1271.75" y="440" width="66.5" height="70" as="geometry" />
        </mxCell>
        <mxCell id="uI71vVi89oAQMDwX3qzH-30" value="Amazon&amp;nbsp; SNS" style="text;html=1;align=center;verticalAlign=middle;resizable=0;points=[];autosize=1;strokeColor=none;fillColor=none;" vertex="1" parent="UEzPUAAOIrF-is8g5C7q-154">
          <mxGeometry x="1256" y="520" width="100" height="30" as="geometry" />
        </mxCell>
        <mxCell id="uI71vVi89oAQMDwX3qzH-31" value="" style="outlineConnect=0;dashed=0;verticalLabelPosition=bottom;verticalAlign=top;align=center;html=1;shape=mxgraph.aws3.cloudtrail;fillColor=#759C3E;gradientColor=none;strokeColor=#6C8EBF;fontSize=13;" vertex="1" parent="UEzPUAAOIrF-is8g5C7q-154">
          <mxGeometry x="1271.75" y="580" width="66.5" height="80" as="geometry" />
        </mxCell>
        <mxCell id="uI71vVi89oAQMDwX3qzH-32" value="Amazon CloudTrail" style="text;html=1;align=center;verticalAlign=middle;resizable=0;points=[];autosize=1;strokeColor=none;fillColor=none;" vertex="1" parent="UEzPUAAOIrF-is8g5C7q-154">
          <mxGeometry x="1255" y="670" width="130" height="30" as="geometry" />
        </mxCell>
        <mxCell id="uI71vVi89oAQMDwX3qzH-37" style="edgeStyle=orthogonalEdgeStyle;rounded=0;orthogonalLoop=1;jettySize=auto;html=1;exitX=0.5;exitY=1;exitDx=0;exitDy=0;" edge="1" parent="UEzPUAAOIrF-is8g5C7q-154" source="uI71vVi89oAQMDwX3qzH-18" target="uI71vVi89oAQMDwX3qzH-18">
          <mxGeometry relative="1" as="geometry" />
        </mxCell>
        <mxCell id="UEzPUAAOIrF-is8g5C7q-161" value="Lambda&lt;br&gt;Function&lt;br&gt;" style="outlineConnect=0;fontColor=#232F3E;gradientColor=none;fillColor=#D05C17;strokeColor=none;dashed=0;verticalLabelPosition=bottom;verticalAlign=top;align=center;html=1;fontSize=12;fontStyle=0;aspect=fixed;pointerEvents=1;shape=mxgraph.aws4.lambda_function;labelBackgroundColor=#ffffff;" parent="1" vertex="1">
          <mxGeometry x="986" y="-584" width="78" height="78" as="geometry" />
        </mxCell>
        <mxCell id="uI71vVi89oAQMDwX3qzH-15" value="" style="endArrow=classic;html=1;rounded=0;" edge="1" parent="1">
          <mxGeometry width="50" height="50" relative="1" as="geometry">
            <mxPoint x="333" y="-221" as="sourcePoint" />
            <mxPoint x="194.99999999999955" y="-220.81690140845058" as="targetPoint" />
          </mxGeometry>
        </mxCell>
      </root>
    </mxGraphModel>
  </diagram>
</mxfile>
